#!OML:ASF I:\Actors\actors\Patient Classification 2\Patient 1\Session 1\actor1.ASF
:FULLY-SPECIFIED
:DEGREES
215
root -1.2081 18.2421 5.72963 18.6004 -4.24298 -3.55276
lowerback 21.8644 -1.22776 -5.31199
upperback -2.61822 -3.78684 -4.58473
thorax -15.4136 -1.5166 -0.944192
lowerneck -10.2489 -13.0878 -11.6574
upperneck -19.9467 -16.2128 7.02481
head -2.9811 -7.56206 3.72844
rclavicle 1.43125e-014 -3.81667e-014
rhumerus -70.4466 0.922937 -101.759
rradius 114.44
rwrist 21.6778
rhand -10.2303 -43.1628
rfingers 7.12502
rthumb 15.7619 -72.5411
lclavicle 1.43125e-014 -3.81667e-014
lhumerus -68.2822 -2.5117 94.7808
lradius 131.433
lwrist -21.3338
lhand 19.9411 -2.26417
lfingers 7.12502
lthumb 44.4802 21.4372
rfemur -29.4843 -8.80197 20.8421
rtibia 32.135
rfoot -18.662 3.93186
rtoes -10.8499
lfemur -34.5594 12.0988 -10.7811
ltibia 40.7536
lfoot -21.575 1.12902
ltoes -58.3904
216
root -1.21455 18.2447 5.7316 18.5862 -4.40978 -3.62787
lowerback 21.8141 -1.20202 -5.56186
upperback -2.62544 -3.83792 -4.72188
thorax -15.3891 -1.52698 -0.9449
lowerneck -9.99828 -13.2604 -12.0628
upperneck -19.8769 -16.4371 7.12026
head -2.94145 -7.65314 3.81098
rclavicle 2.54444e-014 6.99722e-014
rhumerus -70.4359 0.987944 -101.854
rradius 114.408
rwrist 21.6307
rhand -10.1669 -43.0876
rfingers 7.12502
rthumb 15.8229 -72.461
lclavicle 2.54444e-014 6.99722e-014
lhumerus -68.4511 -2.48399 94.779
lradius 131.586
lwrist -21.4324
lhand 19.9454 -2.17469
lfingers 7.12502
lthumb 44.4842 21.5252
rfemur -29.3985 -8.64846 20.8931
rtibia 31.9767
rfoot -18.5771 3.94105
rtoes -10.6194
lfemur -34.4409 12.2141 -10.7065
ltibia 40.6884
lfoot -21.5746 1.20273
ltoes -58.3512
217
root -1.21977 18.2475 5.73366 18.5575 -4.56321 -3.74401
lowerback 21.8148 -1.19175 -5.74055
upperback -2.67125 -3.89744 -4.85005
thorax -15.4453 -1.54469 -0.972689
lowerneck -9.6097 -13.3819 -12.3586
upperneck -19.8812 -16.6309 7.161
head -2.95881 -7.7332 3.8779
rclavicle -4.77083e-015 4.77083e-014
rhumerus -70.508 1.04979 -102.053
rradius 114.266
rwrist 22.1844
rhand -10.4277 -42.8862
rfingers 7.12502
rthumb 15.5718 -72.2793
lclavicle -4.77083e-015 4.77083e-014
lhumerus -68.7222 -2.4368 94.7191
lradius 131.747
lwrist -21.5302
lhand 20.0322 -2.14432
lfingers 7.12502
lthumb 44.5651 21.5245
rfemur -29.2861 -8.52709 20.9908
rtibia 31.7965
rfoot -18.4838 4.01191
rtoes -10.113
lfemur -34.305 12.3115 -10.5782
ltibia 40.6351
lfoot -21.5623 1.31611
ltoes -58.3485
218
root -1.22388 18.2497 5.73592 18.546 -4.69132 -3.8772
lowerback 21.7839 -1.18392 -5.88904
upperback -2.68771 -3.94411 -4.96543
thorax -15.4479 -1.55994 -1.00723
lowerneck -9.33649 -13.4606 -12.5215
upperneck -19.9415 -16.7634 7.20018
head -2.99071 -7.78905 3.9253
rclavicle -1.59028e-015 4.13472e-014
rhumerus -70.5039 1.0819 -102.259
rradius 113.938
rwrist 23.149
rhand -11.1701 -42.1431
rfingers 7.12502
rthumb 14.8566 -71.5904
lclavicle -1.59028e-015 4.13472e-014
lhumerus -68.9222 -2.41159 94.7003
lradius 131.843
lwrist -21.6484
lhand 20.0492 -2.22956
lfingers 7.12502
lthumb 44.5809 21.4332
rfemur -29.1721 -8.42639 21.1145
rtibia 31.5983
rfoot -18.4027 4.05933
rtoes -9.88897
lfemur -34.1975 12.3814 -10.4254
ltibia 40.5926
lfoot -21.5851 1.40137
ltoes -58.359
219
root -1.22525 18.2526 5.73836 18.5394 -4.78802 -3.99833
lowerback 21.7294 -1.19342 -6.04022
upperback -2.67574 -4.00543 -5.05733
thorax -15.3991 -1.58136 -1.00791
lowerneck -9.28253 -13.5066 -12.6129
upperneck -19.9128 -16.8269 7.20418
head -2.97802 -7.81489 3.93716
rclavicle -2.3059e-014 2.54444e-014
rhumerus -70.4571 1.16366 -102.384
rradius 113.72
rwrist 23.7514
rhand -11.5976 -41.6491
rfingers 7.12502
rthumb 14.4447 -71.1264
lclavicle -2.3059e-014 2.54444e-014
lhumerus -68.9753 -2.36614 94.7248
lradius 131.84
lwrist -21.7529
lhand 19.9886 -2.27329
lfingers 7.12502
lthumb 44.5244 21.4112
rfemur -29.0643 -8.42925 21.247
rtibia 31.3985
rfoot -18.2611 4.09773
rtoes -10.1569
lfemur -34.1094 12.4029 -10.286
ltibia 40.5617
lfoot -21.6378 1.49139
ltoes -58.3839
220
root -1.22521 18.2562 5.74125 18.5227 -4.89653 -4.09547
lowerback 21.6816 -1.19201 -6.20578
upperback -2.67402 -4.05662 -5.14308
thorax -15.3654 -1.59621 -0.997071
lowerneck -9.26411 -13.5432 -12.6996
upperneck -19.8492 -16.8725 7.19878
head -2.95219 -7.83247 3.94231
rclavicle 4.53229e-014 4.13472e-014
rhumerus -70.4523 1.21757 -102.447
rradius 113.682
rwrist 23.989
rhand -11.6036 -41.5221
rfingers 7.12502
rthumb 14.439 -70.9998
lclavicle 4.53229e-014 4.13472e-014
lhumerus -69.0221 -2.38015 94.7445
lradius 131.815
lwrist -21.8513
lhand 20.0497 -2.02669
lfingers 7.12502
lthumb 44.5813 21.6359
rfemur -28.959 -8.485 21.3564
rtibia 31.2174
rfoot -18.0737 4.18007
rtoes -10.359
lfemur -34.0145 12.3888 -10.1758
ltibia 40.5382
lfoot -21.6946 1.66314
ltoes -58.464
221
root -1.22684 18.2593 5.7451 18.4962 -5.06107 -4.23038
lowerback 21.6379 -1.13919 -6.33878
upperback -2.68677 -4.03183 -5.2244
thorax -15.3549 -1.57914 -1.02567
lowerneck -9.08634 -13.5836 -12.7905
upperneck -19.9131 -16.9462 7.22316
head -2.98247 -7.8623 3.97291
rclavicle -1.74931e-014 -4.13472e-014
rhumerus -70.4801 1.13946 -102.479
rradius 113.661
rwrist 24.1036
rhand -11.7103 -41.5592
rfingers 7.12502
rthumb 14.3362 -71.0442
lclavicle -1.74931e-014 -4.13472e-014
lhumerus -69.0594 -2.51447 94.7828
lradius 131.757
lwrist -21.9416
lhand 20.2936 -1.82425
lfingers 7.12502
lthumb 44.8084 21.7504
rfemur -28.8411 -8.44076 21.4811
rtibia 31.0495
rfoot -17.8908 4.24608
rtoes -10.4775
lfemur -33.8768 12.3962 -10.0085
ltibia 40.5151
lfoot -21.7652 1.78201
ltoes -58.3668
222
root -1.22906 18.2617 5.7483 18.4699 -5.21765 -4.34927
lowerback 21.602 -1.08513 -6.48022
upperback -2.72908 -4.01197 -5.30837
thorax -15.3848 -1.56251 -1.05156
lowerneck -8.89334 -13.6015 -12.8557
upperneck -19.8872 -16.9911 7.24309
head -2.99153 -7.88244 3.99653
rclavicle 4.37326e-014 5.40694e-014
rhumerus -70.5574 0.983779 -102.513
rradius 113.797
rwrist 23.4961
rhand -11.5323 -41.9673
rfingers 7.12502
rthumb 14.5077 -71.44
lclavicle 4.37326e-014 5.40694e-014
lhumerus -69.1179 -2.64823 94.8259
lradius 131.644
lwrist -22.058
lhand 20.3597 -1.8975
lfingers 7.12502
lthumb 44.87 21.6531
rfemur -28.728 -8.3729 21.5878
rtibia 30.8801
rfoot -17.7292 4.27409
rtoes -10.4331
lfemur -33.7215 12.3783 -9.8381
ltibia 40.485
lfoot -21.8496 1.76914
ltoes -57.6488
223
root -1.22938 18.2644 5.75246 18.4389 -5.33183 -4.4299
lowerback 21.5605 -1.0624 -6.64768
upperback -2.76866 -4.03522 -5.36363
thorax -15.4028 -1.56117 -1.01503
lowerneck -8.92794 -13.6014 -12.9752
upperneck -19.6995 -16.9644 7.2994
head -2.91625 -7.86887 4.01672
rclavicle -2.06736e-014 1.90833e-014
rhumerus -70.5828 0.910508 -102.508
rradius 114.066
rwrist 22.2979
rhand -10.9051 -42.6971
rfingers 7.12502
rthumb 15.1119 -72.1254
lclavicle -2.06736e-014 1.90833e-014
lhumerus -69.1676 -2.7083 94.8859
lradius 131.531
lwrist -22.1565
lhand 20.2172 -1.98947
lfingers 7.12502
lthumb 44.7374 21.6128
rfemur -28.6051 -8.33385 21.6543
rtibia 30.7097
rfoot -17.634 4.29812
rtoes -10.2852
lfemur -33.5769 12.3446 -9.72563
ltibia 40.4442
lfoot -21.9084 1.7992
ltoes -57.3194
224
root -1.22762 18.2677 5.75964 18.4106 -5.41416 -4.55556
lowerback 21.5077 -1.05144 -6.72776
upperback -2.79106 -4.03956 -5.36887
thorax -15.3938 -1.55664 -0.97595
lowerneck -9.05681 -13.5899 -13.0559
upperneck -19.5974 -16.9191 7.30762
head -2.8637 -7.84268 4.01773
rclavicle -3.97569e-015 1.59028e-014
rhumerus -70.5698 0.938195 -102.465
rradius 114.169
rwrist 21.7434
rhand -10.5759 -43.138
rfingers 7.12502
rthumb 15.429 -72.5422
lclavicle -3.97569e-015 1.59028e-014
lhumerus -69.1688 -2.76408 94.9904
lradius 131.483
lwrist -22.1799
lhand 20.3093 -1.89162
lfingers 7.12502
lthumb 44.8231 21.6773
rfemur -28.4653 -8.31302 21.766
rtibia 30.5443
rfoot -17.5466 4.34095
rtoes -10.3581
lfemur -33.4367 12.3287 -9.58115
ltibia 40.3952
lfoot -21.956 1.88937
ltoes -57.2982
225
root -1.22466 18.2699 5.76683 18.3815 -5.44506 -4.6527
lowerback 21.4674 -1.05588 -6.77219
upperback -2.815 -4.05654 -5.37576
thorax -15.3964 -1.56066 -0.954426
lowerneck -9.14549 -13.5558 -12.9975
upperneck -19.5802 -16.8716 7.22928
head -2.8622 -7.81813 3.9836
rclavicle -4.77083e-015 -9.54166e-015
rhumerus -70.6172 0.971753 -102.461
rradius 114.169
rwrist 21.7336
rhand -10.6309 -43.2606
rfingers 7.12502
rthumb 15.376 -72.6688
lclavicle -4.77083e-015 -9.54166e-015
lhumerus -69.1637 -2.83355 95.092
lradius 131.491
lwrist -22.1581
lhand 20.6124 -1.74328
lfingers 7.12502
lthumb 45.1051 21.7147
rfemur -28.3198 -8.3221 21.8526
rtibia 30.3865
rfoot -17.454 4.3677
rtoes -10.4921
lfemur -33.3276 12.3096 -9.4819
ltibia 40.343
lfoot -21.9768 2.04005
ltoes -57.6214
226
root -1.22156 18.2723 5.77275 18.3507 -5.41611 -4.67752
lowerback 21.4267 -1.08167 -6.84801
upperback -2.8454 -4.11211 -5.39058
thorax -15.4043 -1.5794 -0.91161
lowerneck -9.16107 -13.4915 -13.0064
upperneck -19.6381 -16.7747 7.29513
head -2.87766 -7.76995 4.01114
rclavicle 1.27222e-014 3.49861e-014
rhumerus -70.6841 0.98297 -102.474
rradius 114.194
rwrist 21.6662
rhand -10.6241 -43.3188
rfingers 7.12502
rthumb 15.3826 -72.7265
lclavicle 1.27222e-014 3.49861e-014
lhumerus -69.1611 -2.89113 95.1792
lradius 131.515
lwrist -22.0773
lhand 20.8438 -1.65894
lfingers 7.12502
lthumb 45.3204 21.7133
rfemur -28.1796 -8.32982 21.8665
rtibia 30.2434
rfoot -17.4306 4.33736
rtoes -10.6121
lfemur -33.2599 12.2904 -9.46481
ltibia 40.2922
lfoot -21.9482 2.1749
ltoes -58.2359
227
root -1.21907 18.2749 5.77841 18.3241 -5.37142 -4.71029
lowerback 21.3773 -1.09992 -6.89539
upperback -2.88256 -4.14816 -5.39527
thorax -15.4164 -1.59114 -0.880035
lowerneck -9.12179 -13.3897 -12.9808
upperneck -19.7652 -16.6387 7.36855
head -2.92688 -7.7033 4.0461
rclavicle -1.74931e-014 -9.54166e-015
rhumerus -70.7432 0.936259 -102.491
rradius 114.197
rwrist 21.6771
rhand -10.6368 -43.272
rfingers 7.12502
rthumb 15.3703 -72.6807
lclavicle -1.74931e-014 -9.54166e-015
lhumerus -69.1677 -2.94449 95.2764
lradius 131.543
lwrist -22.0113
lhand 20.9942 -1.65498
lfingers 7.12502
lthumb 45.4601 21.661
rfemur -28.0566 -8.30832 21.8873
rtibia 30.1183
rfoot -17.4622 4.27697
rtoes -10.5781
lfemur -33.1933 12.2868 -9.42416
ltibia 40.2385
lfoot -21.9136 2.18395
ltoes -57.9744
228
root -1.21687 18.277 5.7845 18.2967 -5.35474 -4.71769
lowerback 21.306 -1.08042 -6.95532
upperback -2.90582 -4.13654 -5.42081
thorax -15.401 -1.58278 -0.881648
lowerneck -9.18903 -13.2508 -12.7462
upperneck -19.8204 -16.4666 7.28673
head -2.97237 -7.6265 3.99966
rclavicle -5.56597e-015 -6.04305e-014
rhumerus -70.7043 0.836415 -102.503
rradius 114.161
rwrist 21.6652
rhand -10.7011 -43.3328
rfingers 7.12502
rthumb 15.3084 -72.7462
lclavicle -5.56597e-015 -6.04305e-014
lhumerus -69.1281 -3.03701 95.3628
lradius 131.564
lwrist -21.9425
lhand 21.1947 -1.56662
lfingers 7.12502
lthumb 45.6464 21.6737
rfemur -27.9434 -8.27575 21.8737
rtibia 30.0025
rfoot -17.4871 4.21412
rtoes -10.5068
lfemur -33.118 12.2692 -9.41009
ltibia 40.1774
lfoot -21.8969 2.18892
ltoes -58.1835
